# xmcd
#
# Track frame offsets:
#	151
#	12511
#	31881
#	47282
#	61960
#	79265
#	94588
#	119359
#	139643
#	158776
#	182201
#	198158
#	216049
#
# Disc length: 3192 seconds
#
# Revision: 0
# Processed by: cddbd v1.4PL0 Copyright (c) Steve Scherf et al.
# Submitted via: dBpowerAMP V4.0
#
DISCID=a50c760d
DTITLE=Deana Carter - Everything's Gonna Be Alright
DYEAR=1900
DGENRE=Country
TTITLE0=You Still Shake Me
TTITLE1=Ruby Brown
TTITLE2=Absence Of The Heart
TTITLE3=Brand New Key
TTITLE4=Michelangelo Sky
TTITLE5=People Miss Planes
TTITLE6=Never Comin' Down
TTITLE7=Make Up Your Mind
TTITLE8=Colour Everywhere
TTITLE9=Angels Working Overtime
TTITLE10=Disckson County
TTITLE11=The Train Song
TTITLE12=Everything's Gonna Be Alright
EXTD=
EXTT0=
EXTT1=
EXTT2=
EXTT3=
EXTT4=
EXTT5=
EXTT6=
EXTT7=
EXTT8=
EXTT9=
EXTT10=
EXTT11=
EXTT12=
PLAYORDER=
